<mxfile host="Electron" agent="Mozilla/5.0 (Windows NT 10.0; Win64; x64) AppleWebKit/537.36 (KHTML, like Gecko) draw.io/25.0.2 Chrome/128.0.6613.186 Electron/32.2.5 Safari/537.36" version="25.0.2">
  <diagram id="C5RBs43oDa-KdzZeNtuy" name="Page-1">
    <mxGraphModel dx="1036" dy="1783" grid="1" gridSize="10" guides="1" tooltips="1" connect="1" arrows="1" fold="1" page="1" pageScale="1" pageWidth="827" pageHeight="1169" math="0" shadow="0">
      <root>
        <mxCell id="WIyWlLk6GJQsqaUBKTNV-0" />
        <mxCell id="WIyWlLk6GJQsqaUBKTNV-1" parent="WIyWlLk6GJQsqaUBKTNV-0" />
        <mxCell id="cyFxnOvqambi-OT4J-ao-19" value="" style="rounded=0;whiteSpace=wrap;html=1;" parent="WIyWlLk6GJQsqaUBKTNV-1" vertex="1">
          <mxGeometry x="460" y="-20" width="430" height="780" as="geometry" />
        </mxCell>
        <mxCell id="cyFxnOvqambi-OT4J-ao-18" value="" style="rounded=0;whiteSpace=wrap;html=1;" parent="WIyWlLk6GJQsqaUBKTNV-1" vertex="1">
          <mxGeometry x="30" y="-20" width="430" height="780" as="geometry" />
        </mxCell>
        <mxCell id="WIyWlLk6GJQsqaUBKTNV-3" value="Browse customization&lt;div&gt;Request&lt;/div&gt;" style="rounded=1;whiteSpace=wrap;html=1;fontSize=12;glass=0;strokeWidth=1;shadow=0;" parent="WIyWlLk6GJQsqaUBKTNV-1" vertex="1">
          <mxGeometry x="600" y="120" width="120" height="40" as="geometry" />
        </mxCell>
        <mxCell id="WIyWlLk6GJQsqaUBKTNV-7" value="Submit an offer" style="rounded=1;whiteSpace=wrap;html=1;fontSize=12;glass=0;strokeWidth=1;shadow=0;" parent="WIyWlLk6GJQsqaUBKTNV-1" vertex="1">
          <mxGeometry x="600" y="210" width="120" height="40" as="geometry" />
        </mxCell>
        <mxCell id="cyFxnOvqambi-OT4J-ao-20" value="Customer" style="text;html=1;align=center;verticalAlign=middle;whiteSpace=wrap;rounded=0;" parent="WIyWlLk6GJQsqaUBKTNV-1" vertex="1">
          <mxGeometry x="200" y="-20" width="60" height="30" as="geometry" />
        </mxCell>
        <mxCell id="cyFxnOvqambi-OT4J-ao-21" value="Artist" style="text;html=1;align=center;verticalAlign=middle;whiteSpace=wrap;rounded=0;" parent="WIyWlLk6GJQsqaUBKTNV-1" vertex="1">
          <mxGeometry x="630" y="-20" width="60" height="30" as="geometry" />
        </mxCell>
        <mxCell id="cyFxnOvqambi-OT4J-ao-31" value="" style="ellipse;html=1;shape=startState;fillColor=#000000;strokeColor=#ff0000;" parent="WIyWlLk6GJQsqaUBKTNV-1" vertex="1">
          <mxGeometry x="645" y="30" width="30" height="30" as="geometry" />
        </mxCell>
        <mxCell id="cyFxnOvqambi-OT4J-ao-32" value="" style="edgeStyle=orthogonalEdgeStyle;html=1;verticalAlign=bottom;endArrow=open;endSize=8;strokeColor=#ff0000;rounded=0;" parent="WIyWlLk6GJQsqaUBKTNV-1" source="cyFxnOvqambi-OT4J-ao-31" edge="1">
          <mxGeometry relative="1" as="geometry">
            <mxPoint x="660" y="120" as="targetPoint" />
          </mxGeometry>
        </mxCell>
        <mxCell id="rnMzFVEXDFbTbHylvlPK-5" value="is offer accepted&lt;span style=&quot;background-color: initial;&quot;&gt;?&lt;/span&gt;" style="rhombus;whiteSpace=wrap;html=1;shadow=0;fontFamily=Helvetica;fontSize=12;align=center;strokeWidth=1;spacing=6;spacingTop=-4;" parent="WIyWlLk6GJQsqaUBKTNV-1" vertex="1">
          <mxGeometry x="190" y="370" width="120" height="80" as="geometry" />
        </mxCell>
        <mxCell id="rnMzFVEXDFbTbHylvlPK-8" value="Receive an offer" style="rounded=1;whiteSpace=wrap;html=1;fontSize=12;glass=0;strokeWidth=1;shadow=0;" parent="WIyWlLk6GJQsqaUBKTNV-1" vertex="1">
          <mxGeometry x="320" y="270" width="120" height="40" as="geometry" />
        </mxCell>
        <mxCell id="rnMzFVEXDFbTbHylvlPK-9" value="" style="shape=mxgraph.sysml.actFinal;html=1;verticalLabelPosition=bottom;labelBackgroundColor=#ffffff;verticalAlign=top;" parent="WIyWlLk6GJQsqaUBKTNV-1" vertex="1">
          <mxGeometry x="374" y="440" width="40" height="40" as="geometry" />
        </mxCell>
        <mxCell id="rnMzFVEXDFbTbHylvlPK-14" value="No" style="text;html=1;align=center;verticalAlign=middle;whiteSpace=wrap;rounded=0;" parent="WIyWlLk6GJQsqaUBKTNV-1" vertex="1">
          <mxGeometry x="300" y="420" width="60" height="30" as="geometry" />
        </mxCell>
        <mxCell id="rnMzFVEXDFbTbHylvlPK-18" value="Message Artist" style="rounded=1;whiteSpace=wrap;html=1;fontSize=12;glass=0;strokeWidth=1;shadow=0;" parent="WIyWlLk6GJQsqaUBKTNV-1" vertex="1">
          <mxGeometry x="185" y="520" width="120" height="40" as="geometry" />
        </mxCell>
        <mxCell id="rnMzFVEXDFbTbHylvlPK-19" value="Receive message" style="rounded=1;whiteSpace=wrap;html=1;fontSize=12;glass=0;strokeWidth=1;shadow=0;" parent="WIyWlLk6GJQsqaUBKTNV-1" vertex="1">
          <mxGeometry x="630" y="570" width="120" height="40" as="geometry" />
        </mxCell>
        <mxCell id="rnMzFVEXDFbTbHylvlPK-21" value="" style="shape=mxgraph.sysml.actFinal;html=1;verticalLabelPosition=bottom;labelBackgroundColor=#ffffff;verticalAlign=top;" parent="WIyWlLk6GJQsqaUBKTNV-1" vertex="1">
          <mxGeometry x="660" y="680" width="40" height="40" as="geometry" />
        </mxCell>
        <mxCell id="nUTEnepSk5Ewha81VH8M-0" value="" style="endArrow=classic;html=1;rounded=0;exitX=0;exitY=0.25;exitDx=0;exitDy=0;entryX=0.657;entryY=-0.115;entryDx=0;entryDy=0;entryPerimeter=0;" parent="WIyWlLk6GJQsqaUBKTNV-1" source="WIyWlLk6GJQsqaUBKTNV-7" target="rnMzFVEXDFbTbHylvlPK-8" edge="1">
          <mxGeometry width="50" height="50" relative="1" as="geometry">
            <mxPoint x="290" y="190" as="sourcePoint" />
            <mxPoint x="340" y="140" as="targetPoint" />
          </mxGeometry>
        </mxCell>
        <mxCell id="nUTEnepSk5Ewha81VH8M-1" value="" style="endArrow=classic;html=1;rounded=0;exitX=0.317;exitY=1.005;exitDx=0;exitDy=0;exitPerimeter=0;entryX=0.58;entryY=0.042;entryDx=0;entryDy=0;entryPerimeter=0;" parent="WIyWlLk6GJQsqaUBKTNV-1" source="rnMzFVEXDFbTbHylvlPK-8" target="rnMzFVEXDFbTbHylvlPK-5" edge="1">
          <mxGeometry width="50" height="50" relative="1" as="geometry">
            <mxPoint x="200" y="360" as="sourcePoint" />
            <mxPoint x="250" y="310" as="targetPoint" />
          </mxGeometry>
        </mxCell>
        <mxCell id="nUTEnepSk5Ewha81VH8M-3" value="" style="endArrow=classic;html=1;rounded=0;exitX=0.417;exitY=0.25;exitDx=0;exitDy=0;exitPerimeter=0;" parent="WIyWlLk6GJQsqaUBKTNV-1" edge="1">
          <mxGeometry width="50" height="50" relative="1" as="geometry">
            <mxPoint x="650" y="160" as="sourcePoint" />
            <mxPoint x="650" y="210" as="targetPoint" />
          </mxGeometry>
        </mxCell>
        <mxCell id="nUTEnepSk5Ewha81VH8M-4" value="" style="endArrow=classic;html=1;rounded=0;exitX=0.433;exitY=0.965;exitDx=0;exitDy=0;exitPerimeter=0;" parent="WIyWlLk6GJQsqaUBKTNV-1" source="rnMzFVEXDFbTbHylvlPK-19" target="rnMzFVEXDFbTbHylvlPK-21" edge="1">
          <mxGeometry width="50" height="50" relative="1" as="geometry">
            <mxPoint x="700" y="600" as="sourcePoint" />
            <mxPoint x="650" y="650" as="targetPoint" />
          </mxGeometry>
        </mxCell>
        <mxCell id="nUTEnepSk5Ewha81VH8M-5" value="" style="endArrow=classic;html=1;rounded=0;exitX=1;exitY=1;exitDx=0;exitDy=0;entryX=0.18;entryY=0.355;entryDx=0;entryDy=0;entryPerimeter=0;" parent="WIyWlLk6GJQsqaUBKTNV-1" source="rnMzFVEXDFbTbHylvlPK-5" target="rnMzFVEXDFbTbHylvlPK-9" edge="1">
          <mxGeometry width="50" height="50" relative="1" as="geometry">
            <mxPoint x="320" y="490" as="sourcePoint" />
            <mxPoint x="370" y="440" as="targetPoint" />
          </mxGeometry>
        </mxCell>
        <mxCell id="nUTEnepSk5Ewha81VH8M-6" value="" style="endArrow=classic;html=1;rounded=0;exitX=0.573;exitY=0.025;exitDx=0;exitDy=0;exitPerimeter=0;entryX=0.573;entryY=0.025;entryDx=0;entryDy=0;entryPerimeter=0;" parent="WIyWlLk6GJQsqaUBKTNV-1" target="rnMzFVEXDFbTbHylvlPK-18" edge="1">
          <mxGeometry width="50" height="50" relative="1" as="geometry">
            <mxPoint x="255" y="450" as="sourcePoint" />
            <mxPoint x="205" y="500" as="targetPoint" />
          </mxGeometry>
        </mxCell>
        <mxCell id="nUTEnepSk5Ewha81VH8M-7" value="Yes" style="text;html=1;align=center;verticalAlign=middle;whiteSpace=wrap;rounded=0;" parent="WIyWlLk6GJQsqaUBKTNV-1" vertex="1">
          <mxGeometry x="240" y="460" width="60" height="30" as="geometry" />
        </mxCell>
        <mxCell id="nUTEnepSk5Ewha81VH8M-8" value="" style="endArrow=classic;html=1;rounded=0;exitX=1;exitY=0.25;exitDx=0;exitDy=0;entryX=0.067;entryY=0.005;entryDx=0;entryDy=0;entryPerimeter=0;" parent="WIyWlLk6GJQsqaUBKTNV-1" source="rnMzFVEXDFbTbHylvlPK-18" target="rnMzFVEXDFbTbHylvlPK-19" edge="1">
          <mxGeometry width="50" height="50" relative="1" as="geometry">
            <mxPoint x="360" y="590" as="sourcePoint" />
            <mxPoint x="410" y="540" as="targetPoint" />
          </mxGeometry>
        </mxCell>
      </root>
    </mxGraphModel>
  </diagram>
</mxfile>
